# xmcd
#
# Track frame offsets: 
#        183
#        13458
#        23733
#        33933
#        44245
#        56020
#        62020
#        73158
#        79308
#        92208
#        107208
#        118883
#        126533
#        138408
#        149658
#        156308
#        167470
#        174558
#        185558
#        194533
#        204158
#
# Disc length: 2842 seconds
#
# Revision: 0
# Processed by: cddbd v1.5.2PL0 Copyright (c) Steve Scherf et al.
# Submitted via: ExactAudioCopyFreeDBPlugin 1.0
#
DISCID=490b1815
DTITLE=Various Artist - Musika Erraldoia
DYEAR=1994
DGENRE=Ethnic
TTITLE0=To Navarra (jota), Elizaren errepertoriotik hartua
TTITLE1=Shoe store (parades), J. Romaroren errepertoriotik hartua
TTITLE2=Gaztelu Plaza (waltz), N. Garcia errepertoriotik hartua
TTITLE3=To Louvers (parades), A. Lumbrerasen errepertoriotik hartua
TTITLE4=Udal Emparantza (waltz), Perez de Lazarragaren errepertoriotik
TTITLE4=hartua
TTITLE5=Mañueta (parades), Elizaren errepertoriotik hartua
TTITLE6=Kontseiluko Plaza (waltz), Perez de Lazarragaren errepertoriot
TTITLE6=ik hartua
TTITLE7=Kale Nagusia (waltz), Elizaren errepertoriotik hartua
TTITLE8=Navarreria (waltz), Perez de Lazarragaren errepertoriotik hart
TTITLE8=ua
TTITLE9=German, Herrikoia
TTITLE10=Edilberto (jota), Elizaren errepertoriotik hartua
TTITLE11=La Comparsa (parades), A. Lights in Doinua
TTITLE12=Echoes of the Ega (jota), Elizaren errepertoriotik hartua
TTITLE13=Nicolas Virto (waltz), N. Virtoren errepertoriotik hartua
TTITLE14=Jarauta (parades), J. Romanoren errepertoriotik hartua
TTITLE15=Sustraiak (waltz), Perez de Lazarragaren errepertoriotik hart
TTITLE15=ua
TTITLE16=Aska (parades), H. Olazaranen errepertoriotik hartua
TTITLE17=Waltz Txiki, Fernando Lizoainen doinua
TTITLE18=Tejeria (parades), Perez de Lazarragaren errepertoriotik hart
TTITLE18=ua
TTITLE19=Muga (waltz), N. Garciaren errepertoriotik hartua
TTITLE20=Polonaise, Herrikoia
EXTD=
EXTT0=
EXTT1=
EXTT2=
EXTT3=
EXTT4=
EXTT5=
EXTT6=
EXTT7=
EXTT8=
EXTT9=
EXTT10=
EXTT11=
EXTT12=
EXTT13=
EXTT14=
EXTT15=
EXTT16=
EXTT17=
EXTT18=
EXTT19=
EXTT20=
PLAYORDER=
